{"title":"The Death of Superman Lives-What Happened 720p","uid":12116903,"size":2358821785,"categoryP":"video","categoryS":"hd___movies","magnet":"?xt=urn:btih:e3b5d2ffc744cdd3834007c7eeb5169f94cd721a&amp;dn=The+Death+of+Superman+Lives-What+Happened+720p&amp;tr=udp%3A%2F%2Ftracker.openbittorrent.com%3A80&amp;tr=udp%3A%2F%2Fopen.demonii.com%3A1337&amp;tr=udp%3A%2F%2Ftracker.coppersurfer.tk%3A6969&amp;tr=udp%3A%2F%2Fexodus.desync.com%3A6969","seeders":1,"leechers":0,"uploader":"Mulva1989","files":1,"time":1436741807,"description":"[b] The Death of Superman Lives-What Happened 720p [b]\n\nA documentary about the proposed 1998 Superman Lives feature film that would have starred Nicolas Cage.\n\n[img]https://yuq.me/users/50/321/hVktENdgx6.jpg[/img]\n[img]https://yuq.me/users/50/321/UCWcFHgKVM.jpg[/img]\n\nFormat : MPEG-4\nFormat profile : Base Media\nCodec ID : isom\nFile size : 2.20 GiB\nDuration : 1h 44mn\nOverall bit rate : 3 011 Kbps\nWriting application : Lavf55.12.100\n\nVideo\nID : 1\nFormat : AVC\nFormat/Info : Advanced Video Codec\nFormat profile : &lt;a class=&quot;__cf_email__&quot; href=&quot;/cdn-cgi/l/email-protection&quot; data-cfemail=&quot;81cce0e8efc1cdb5afb1&quot;&gt;[email&amp;#160;protected]&lt;/a&gt;&lt;script data-cfhash='f9e31' type=&quot;text/javascript&quot;&gt;\n/* &lt;![CDATA[ */!function(){try{var t=&quot;currentScript&quot;in document?document.currentScript:function(){for(var t=document.getElementsByTagName(&quot;script&quot;),e=t.length;e--;)if(t[e].getAttribute(&quot;data-cfhash&quot;))return t[e]}();if(t&amp;&amp;t.previousSibling){var e,r,n,i,c=t.previousSibling,a=c.getAttribute(&quot;data-cfemail&quot;);if(a){for(e=&quot;&quot;,r=parseInt(a.substr(0,2),16),n=2;a.length-n;n+=2)i=parseInt(a.substr(n,2),16)^r,e+=String.fromCharCode(i);e=document.createTextNode(e),c.parentNode.replaceChild(e,c)}t.parentNode.removeChild(t);}}catch(u){}}()/* ]]&gt; */&lt;/script&gt;\nFormat settings, CABAC : Yes\nFormat settings, ReFrames : 8 frames\nCodec ID : avc1\nCodec ID/Info : Advanced Video Coding\nDuration : 1h 44mn\nBit rate : 2 894 Kbps\nWidth : 1 280 pixels\nHeight : 720 pixels\nDisplay aspect ratio : 16:9\nFrame rate mode : Constant\nFrame rate : 24.000 fps\nColor space : YUV\nChroma subsampling : 4:2:0\nBit depth : 8 bits\nScan type : Progressive\nBits/(Pixel*Frame) : 0.131\nStream size : 2.11 GiB (96%)\nWriting library : Zencoder Video Encoding System\nColor primaries : BT.709\nTransfer characteristics : BT.709\nMatrix coefficients : BT.709\nColor range : Limited\n\nAudio\nID : 2\nFormat : AAC\nFormat/Info : Advanced Audio Codec\nFormat profile : LC\nCodec ID : 40\nDuration : 1h 44mn\nBit rate mode : Constant\nBit rate : 113 Kbps\nChannel(s) : 2 channels\nChannel positions : Front: L R\nSampling rate : 48.0 KHz\nCompression mode : Lossy\nStream size : 84.6 MiB (4%)","torrent":{"xt":"urn:btih:e3b5d2ffc744cdd3834007c7eeb5169f94cd721a","amp;dn":"The+Death+of+Superman+Lives-What+Happened+720p","amp;tr":["udp%3A%2F%2Ftracker.openbittorrent.com%3A80","udp%3A%2F%2Fopen.demonii.com%3A1337","udp%3A%2F%2Ftracker.coppersurfer.tk%3A6969","udp%3A%2F%2Fexodus.desync.com%3A6969"],"infoHash":"e3b5d2ffc744cdd3834007c7eeb5169f94cd721a","infoHashBuffer":{"type":"Buffer","data":[227,181,210,255,199,68,205,211,131,64,7,199,238,181,22,159,148,205,114,26]},"announce":[],"urlList":[]}}